<?xml version="1.0" encoding="UTF-8" standalone="no"?>
<svg
   viewBox="0 0 500 500"
   version="1.1"
   id="svg2"
   sodipodi:docname="campfire_icon_black.svg"
   width="500"
   height="500"
   inkscape:version="1.4 (86a8ad7, 2024-10-11)"
   xmlns:inkscape="http://www.inkscape.org/namespaces/inkscape"
   xmlns:sodipodi="http://sodipodi.sourceforge.net/DTD/sodipodi-0.dtd"
   xmlns="http://www.w3.org/2000/svg"
   xmlns:svg="http://www.w3.org/2000/svg">
  <defs
     id="defs2" />
  <sodipodi:namedview
     id="namedview2"
     pagecolor="#ffffff"
     bordercolor="#000000"
     borderopacity="0.25"
     inkscape:showpageshadow="2"
     inkscape:pageopacity="0.0"
     inkscape:pagecheckerboard="0"
     inkscape:deskcolor="#d1d1d1"
     inkscape:zoom="1.2382812"
     inkscape:cx="306.87698"
     inkscape:cy="208.35332"
     inkscape:window-width="1440"
     inkscape:window-height="878"
     inkscape:window-x="-6"
     inkscape:window-y="-6"
     inkscape:window-maximized="1"
     inkscape:current-layer="layer2" />
  <!-- Flames Group -->
  <!-- Logs Group -->
  <g
     inkscape:groupmode="layer"
     id="layer2"
     inkscape:label="campfire"
     transform="translate(55.109291,14.3915)">
    <g
       id="flames"
       fill="#000000"
       transform="translate(-75,-23.438)">
      <path
         d="m 281.53,23.438 c 48.44,71.504 -18.447,145.556 -63.655,58.968 27.295,144.502 -65.22,166.347 -74.75,74.75 -73.554,65.057 -59.358,147.17 -20.438,210.75 l 45.844,-26.344 c -12.004,-18.318 -17.995,-42.502 -15.31,-66.218 25.688,39.43 106.855,10.088 97.124,-59.938 10.695,32.074 37.802,28.97 65.78,-20.5 -38.055,102.716 21.825,169.342 61.907,138.594 1.47,11.97 -2.95,25.657 -10.592,38.063 l 46.968,12.53 c 55.122,-47.503 79.71,-135.97 -3.812,-175.53 39.08,60.478 -13.1,105.064 -60.72,41.468 C 311.33,177.898 432.242,136.637 281.533,23.438 Z"
         id="path1" />
    </g>
    <g
       id="logs"
       fill="#000000"
       transform="translate(-75,-23.438)">
      <path
         d="M 248.346,317.218 75,416.874 c 2.71,18.39 8.98,34.417 18.813,48.5 l 92,-44.063 -78.688,59.875 c 3.39,3.38 7.033,6.62 10.938,9.75 L 192.78,448 c -0.023,-0.738 -0.06,-1.475 -0.06,-2.22 0,-37.22 30.495,-67.56 67.81,-67.56 a 67.554,67.554 0 0 1 29.44,6.717 c -2.323,-13.414 -7.28,-27.104 -14.72,-39.28 l -94.938,40.124 82.47,-56.467 c -4.34,-4.55 -9.166,-8.64 -14.438,-12.094 z m 58.874,57.624 c 1.61,7.148 2.6,14.315 2.967,21.312 l 0.22,3.938 c 11.13,12.042 17.937,28.09 17.937,45.687 a 66.814,66.814 0 0 1 -3.813,22.25 l 91.345,24.376 c 4.642,-6.327 8.588,-12.768 11.844,-19.375 l -63.158,-24.686 70.125,6.844 c 0.866,-2.948 1.61,-5.923 2.22,-8.938 L 339.844,412.03 439,427.5 c 0.156,-5.772 -0.103,-11.67 -0.813,-17.72 L 307.22,374.845 Z m -46.69,22.062 c -27.26,0 -49.124,21.8 -49.124,48.875 0,27.078 21.864,48.876 49.125,48.876 27.263,0 49.126,-21.798 49.126,-48.875 0,-27.075 -21.863,-48.874 -49.125,-48.874 z m -4.936,11.78 c 43.778,0.002 58.435,71.595 0,71.595 26.622,-23.113 29.81,-46.888 0,-71.592 z m 0.187,9.845 c -21.616,17.916 -19.304,35.177 0,51.94 -42.375,0 -31.745,-51.94 0,-51.94 z"
         id="path2" />
    </g>
  </g>
</svg>
