<?xml version="1.0" standalone="no"?>
<!DOCTYPE svg PUBLIC "-//W3C//DTD SVG 20010904//EN"
 "http://www.w3.org/TR/2001/REC-SVG-20010904/DTD/svg10.dtd">
<svg version="1.0" xmlns="http://www.w3.org/2000/svg"
 width="450.000000pt" height="450.000000pt" viewBox="0 0 450.000000 450.000000"
 preserveAspectRatio="xMidYMid meet">
<metadata>
Created by potrace 1.10, written by Peter Selinger 2001-2011
</metadata>
<g transform="translate(0.000000,450.000000) scale(0.100000,-0.100000)"
fill="#000000" stroke="none">
<path d="M2264 4031 c-49 -35 -130 -122 -171 -181 -106 -156 -184 -389 -253
-760 -32 -175 -46 -230 -60 -230 -4 0 -24 42 -44 94 -41 106 -95 194 -150 246
l-38 35 9 -40 c4 -22 8 -92 7 -155 0 -126 9 -93 -108 -375 -80 -194 -98 -302
-77 -470 45 -350 206 -554 483 -610 79 -15 148 -20 148 -9 0 3 -25 36 -55 72
-107 128 -136 234 -101 367 8 33 18 97 22 143 l7 84 30 -31 c21 -21 35 -50 47
-97 l17 -68 36 50 c99 136 146 269 162 461 3 43 9 90 11 106 l6 27 45 -32 c74
-53 125 -130 278 -420 11 -21 23 -34 27 -30 5 5 14 48 21 97 l13 88 27 -33
c77 -90 121 -225 120 -365 0 -157 -32 -245 -128 -359 l-56 -65 41 14 c129 46
318 173 445 300 123 124 202 307 212 490 5 93 3 111 -36 265 -41 163 -63 325
-54 388 13 84 -73 -16 -117 -136 -17 -48 -44 -114 -59 -147 l-27 -60 -29 85
c-84 252 -146 359 -365 625 -196 238 -233 325 -233 543 0 67 -4 122 -7 122 -4
0 -25 -13 -46 -29z"/>
<path d="M2805 1543 c-110 -115 -124 -126 -173 -139 -57 -14 -859 -202 -1427
-335 -187 -43 -350 -83 -362 -88 -48 -22 -70 -206 -36 -310 19 -60 78 -132
122 -151 28 -11 57 -4 336 80 168 51 308 91 310 89 2 -2 -1 -24 -5 -49 -21
-106 -4 -129 85 -116 l46 7 107 215 c59 118 110 214 114 214 4 0 8 -35 10 -79
l3 -78 225 68 c1179 357 1173 355 1183 380 23 60 -16 229 -56 245 -7 2 -101
-20 -210 -49 -108 -30 -197 -51 -197 -48 0 3 34 44 75 91 41 46 75 89 75 95 0
28 -67 87 -97 84 -4 0 -62 -57 -128 -126z"/>
<path d="M1209 1557 c-18 -12 -47 -44 -63 -70 -37 -61 -40 -139 -7 -208 l21
-45 109 -32 c60 -18 117 -32 127 -32 16 0 666 149 749 172 l40 11 -110 27
c-190 48 -822 200 -827 200 -3 0 -20 -10 -39 -23z"/>
<path d="M3040 1086 c-58 -18 -229 -70 -380 -116 -151 -45 -278 -86 -283 -89
-4 -4 116 -44 265 -89 150 -45 408 -122 573 -172 l300 -90 47 50 c42 45 87
122 103 177 6 20 -2 27 -72 60 l-78 38 79 3 78 3 -5 35 c-3 19 -14 52 -24 72
l-18 37 -210 52 c-115 28 -223 54 -240 56 -18 3 -72 -8 -135 -27z"/>
</g>
</svg>
