<?xml version="1.0" encoding="UTF-8" standalone="no"?>
<svg
   viewBox="0 0 512 595"
   version="1.1"
   id="svg1"
   sodipodi:docname="fire-ring.svg"
   width="512"
   height="595"
   inkscape:version="1.4.2 (f4327f4, 2025-05-13)"
   xmlns:inkscape="http://www.inkscape.org/namespaces/inkscape"
   xmlns:sodipodi="http://sodipodi.sourceforge.net/DTD/sodipodi-0.dtd"
   xmlns="http://www.w3.org/2000/svg"
   xmlns:svg="http://www.w3.org/2000/svg">
  <defs
     id="defs1" />
  <sodipodi:namedview
     id="namedview1"
     pagecolor="#ffffff"
     bordercolor="#000000"
     borderopacity="0.25"
     inkscape:showpageshadow="2"
     inkscape:pageopacity="0.0"
     inkscape:pagecheckerboard="0"
     inkscape:deskcolor="#d1d1d1"
     inkscape:zoom="0.83899877"
     inkscape:cx="-68.53407"
     inkscape:cy="367.70018"
     inkscape:window-width="2560"
     inkscape:window-height="1417"
     inkscape:window-x="-8"
     inkscape:window-y="-8"
     inkscape:window-maximized="1"
     inkscape:current-layer="svg1" />
  <g
     class=""
     id="g1">
    <path
       d="m 312.344,16.813 c 5.096,53.015 -76.687,71.94 3.812,131 -21.002,-67.855 39.96,-80.94 -3.812,-131 z m -173.47,43.124 c 2.864,58.907 -7.995,100.984 -34.093,136.97 l -0.5,0.28 c 1.42,-28.968 -14.337,-52.78 -32.093,-75.906 2.882,39.21 -3.964,78.4 -20.156,117.564 -20.79,23.86 -32.718,51.704 -32.718,81.437 0,88.458 105.59,160.158 235.875,160.158 130.285,0 235.907,-71.7 235.907,-160.157 0,-10.08 -1.377,-19.935 -4,-29.5 -6.37,-30.335 -7.76,-49.572 -0.313,-59.155 12.078,-15.54 11.654,-39.39 -2.405,-62.406 -7.558,48.062 -39.085,30.124 -63.063,-53.72 -27.96,94.983 -72.27,-4.392 -58.406,-53.156 -26.26,21.598 -29.623,69.962 -28.22,107.125 a 317.016,317.016 0 0 0 -17.436,-3.75 c -44.64,-15.223 -78.633,-56.624 -62.375,-86.814 -22.038,10.264 -24.77,32.17 -16.375,57.22 19.214,57.337 -56.703,-10.13 -53.72,-56.064 L 167.69,152.751 C 167.536,118.277 161.846,78.827 138.878,59.938 Z M 255.19,197 c 109.056,0 197.468,60.017 197.468,134.063 0,22.193 -7.938,43.127 -22,61.562 -15.436,6.877 -24,-22.344 -25.53,-41.47 -16.12,20.592 -0.576,58.922 -17.407,75.064 -2.128,-10.244 -11.962,-22.962 -25.345,-30.75 2.11,22.203 -4.025,43.33 -29.72,58.936 -31.15,5.69 -44.428,-28.71 -49.56,-54.22 -4.033,33.512 -16.028,58.988 -49.97,64.095 a 284.816,284.816 0 0 1 -12.094,-1.155 c -30.51,-18.392 -20.632,-49.433 -24.25,-78.594 -2.93,29.505 -24.438,65.4 -39,56.158 -25.677,-16.295 10.893,-33.548 -9.53,-63.657 -2.415,30.193 -21.75,31.483 -42.03,29.876 0.94,-14.196 1.723,-28.353 -2.75,-41.25 -9.138,7.68 -18.04,15.838 -34.564,9.938 C 61.685,361.662 57.752,346.676 57.752,331.066 57.75,257.017 146.13,197 255.188,197 Z"
       fill="#ffffff"
       fill-opacity="1"
       id="path1" />
  </g>
</svg>
